# xmcd
#
# Track frame offsets:
#	182
#	19095
#	32240
#	48645
#	63605
#	78915
#	92480
#	108387
#	121730
#	138640
#
# Disc length: 2061 seconds
#
# Revision: 1
# Processed by: cddbd v1.5.1PL0 Copyright (c) Steve Scherf et al.
# Submitted via: audiograbber 1.83.01
#
DISCID=82080b0a
DTITLE=Hank WILIAMS, Jr. - A.K.A. Wham Bam Sam
DYEAR=1996
DGENRE=Country
TTITLE0=Wham Bam Sam
TTITLE1=Don Juan d'Bubba
TTITLE2=Houston, We Have A Problem
TTITLE3=It Makes A Good Story
TTITLE4=Maybe I'm The One Who's Crazy
TTITLE5=Honky Tonked All To Hell
TTITLE6=She Don't Do Nothin' For Me
TTITLE7=Been There, Done That
TTITLE8=Let's Keep The Heart In Country
TTITLE9=You Won't Mind The Rain
EXTD=
EXTT0=
EXTT1=
EXTT2=
EXTT3=
EXTT4=
EXTT5=
EXTT6=
EXTT7=
EXTT8=
EXTT9=
PLAYORDER=
